<?xml version="1.0" encoding="utf-8"?>
<!-- Generator: Adobe Illustrator 16.0.0, SVG Export Plug-In . SVG Version: 6.00 Build 0)  -->
<!DOCTYPE svg PUBLIC "-//W3C//DTD SVG 1.1//EN" "http://www.w3.org/Graphics/SVG/1.1/DTD/svg11.dtd">
<svg version="1.1" id="Layer_1" xmlns="http://www.w3.org/2000/svg" xmlns:xlink="http://www.w3.org/1999/xlink" x="0px" y="0px"
	 width="1280px" height="571px" viewBox="0 0 1280 571" enable-background="new 0 0 1280 571" xml:space="preserve">
<path fill="#FFFFFF" d="M132.162,191.867H44.417v349.406c1.787-0.817,3.153-1.396,4.486-2.065
	c11.751-5.972,23.436-12.062,35.269-17.854c3.092-1.515,3.984-3.431,3.981-6.824c-0.105-47.63-0.077-95.271-0.077-142.897
	c0-1.25,0.115-2.504-0.017-3.735c-0.218-2.163,0.676-3.401,2.57-4.378c13.191-6.856,26.335-13.812,39.499-20.714
	c0.498-0.262,1.088-0.36,2.066-0.668c0.072,1.492,0.18,2.673,0.18,3.844c0.005,53.393-0.018,106.791,0.075,160.184
	c0.004,3.048-0.782,4.686-3.57,6.099c-34.6,17.476-69.141,35.086-103.648,52.73c-2.254,1.155-4.019,1.396-6.32-0.018
	C12.657,561.117,6.23,557.541,0,553.927V4.703h132.162V191.867z M44.395,15.248v165.745h43.044
	c1.05-5.054,0.845-162.172-0.199-165.745H44.395z M528.05,11.403v536.132c0,0.938,0.125,1.893-0.018,2.799
	c-0.437,2.78,0.953,4.223,3.212,5.461c5.379,2.937,10.71,5.985,15.937,9.201c2.083,1.283,3.734,1.298,5.903,0.188
	c34.653-17.727,69.328-35.39,104.05-52.972c2.571-1.292,3.431-2.839,3.425-5.707c-0.074-53.55-0.053-107.105-0.066-160.654
	c0-1.157-0.152-2.313-0.278-4.079c-15.014,7.908-29.448,15.51-43.896,23.118v154.337c-14.469,7.367-28.861,14.697-43.42,22.109
	c-1.049-6.816-0.722-522.877,0.218-525.931h43.245v44.156v43.908c0,14.786-0.023,29.575,0,44.362
	c0.027,14.555-0.118,29.111,0.1,43.599c10.165,0.976,40.674,0.569,43.711-0.473V4.616H528.05V11.403z M439.688,364.912
	c14.533-7.645,28.88-15.2,43.734-23.016c0.196,1.47,0.427,2.446,0.438,3.425c0.015,53.86-0.011,107.727,0.071,161.59
	c0.009,2.794-1.012,4.103-3.35,5.287c-34.72,17.59-69.385,35.27-104.069,52.941c-1.675,0.855-3.132,1.502-5.095,0.307
	c-6.418-3.891-12.978-7.562-19.638-11.415V4.67h131.8v187.04c-5.694,0.128-11.441,0.044-17.177,0.06c-5.807,0.014-11.611,0-17.42,0
	h-17.864h-17.415h-17.237c-0.942,3.727-1.239,342.322-0.317,349.63c14.597-7.405,28.99-14.704,43.539-22.087V364.912z
	 M439.358,181.006V15.486c-7.472-0.984-40.378-0.625-43.343,0.396v165.124H439.358z M1278.244,4.984
	C1273.227,4,1149.703,4.211,1146.229,5.21v548.798c6.188,3.568,12.367,6.963,18.356,10.688c2.536,1.577,4.471,1.539,7.132,0.182
	c34.225-17.565,68.499-35.045,102.822-52.394c3.078-1.559,4-3.365,3.99-6.761c-0.115-52.933-0.076-105.872-0.09-158.806
	c0-1.496-0.119-2.983-0.221-5.169c-14.975,7.872-29.423,15.479-44.021,23.155v154.083c-8.33,5.235-40.476,21.179-43.659,21.697
	V15.317h43.726v176.238h43.979V4.984z M705.069,4.69c-0.943,6.195-0.653,557.962,0.308,561.369c1.39-0.651,2.782-1.254,4.118-1.942
	c10.767-5.536,21.528-11.086,32.294-16.628c30.386-15.638,60.768-31.282,91.166-46.901c2.548-1.309,4.3-2.526,4.285-6.158
	c-0.16-49.51-0.104-99.018-0.123-148.52c0-1.172-0.182-2.335-0.315-3.996c-1.957,0.909-3.461,1.563-4.928,2.306
	c-11.474,5.834-22.867,11.847-34.455,17.445c-3.543,1.714-4.753,3.734-4.738,7.761c0.155,44.057,0.097,88.108,0.097,132.177v5.308
	c-7.734,5.108-40.648,21.354-43.672,21.625c-0.924-8.226-0.511-333.169,0.511-336.758h17.289h17.419h17.87
	c5.81,0,11.614,0.05,17.409-0.019c5.729-0.058,11.476,0.304,17.281-0.271v-10.16h-88.02V4.69H705.069 M308.466,498.624
	c0.929-9.837,0.527-152.769-0.498-156.567c-14.477,7.383-28.892,14.72-43.468,22.155v143.149
	c-14.549,7.396-28.817,14.658-43.893,22.336V493.9v-35.026v-35.03V389.28v-35.025v-35.029v-35.021v-35.027v-35.029V179.12v-35.03
	v-34.564V74.5c0-11.674,0.055-23.351-0.011-35.021c-0.069-11.592,0.293-23.187-0.218-34.827h-43.58v561.785
	C220.998,543.672,264.693,521.164,308.466,498.624 M925.617,15.317h43.785v20.671v20.54c0,7.007-0.004,14.014,0.011,21.014
	c0.015,6.781,0.054,13.564,0.091,20.408h43.777V4.742h-131.92v561.765c14.885-8.338,29.271-16.391,44.256-24.776V15.317z
	 M1100.281,4.696h-43.469c-0.953,6.01-0.647,557.879,0.37,561.409c14.333-8.03,28.621-16.034,43.099-24.145V4.696z"/>
</svg>
